<?xml version="1.0" standalone="no"?>
<!DOCTYPE svg PUBLIC "-//W3C//DTD SVG 20010904//EN"
 "http://www.w3.org/TR/2001/REC-SVG-20010904/DTD/svg10.dtd">
<svg version="1.0" xmlns="http://www.w3.org/2000/svg"
 width="403.000000pt" height="403.000000pt" viewBox="0 0 403.000000 403.000000"
 preserveAspectRatio="xMidYMid meet">
<metadata>
Created by potrace 1.16, written by Peter Selinger 2001-2019
</metadata>
<g transform="translate(0.000000,403.000000) scale(0.100000,-0.100000)"
fill="#000000" stroke="none">
<path d="M1740 3995 c-201 -29 -392 -87 -575 -174 -225 -107 -387 -221 -561
-395 -174 -174 -288 -337 -395 -561 -133 -281 -189 -532 -189 -855 0 -323 56
-574 189 -855 107 -224 221 -387 395 -561 174 -174 337 -288 561 -395 281
-133 532 -189 855 -189 323 0 574 56 855 189 224 107 387 221 561 395 174 174
288 337 395 561 133 281 189 532 189 855 0 323 -56 574 -189 855 -107 224
-221 387 -395 561 -313 312 -703 507 -1141 569 -122 18 -436 18 -555 0z m438
-976 c332 -36 634 -181 867 -415 149 -151 270 -342 337 -534 l23 -65 71 3 c98
4 170 -24 240 -92 44 -43 56 -62 74 -124 17 -55 21 -86 16 -125 -14 -111 -84
-210 -182 -258 l-49 -24 -554 -3 -553 -2 -43 24 c-68 40 -94 122 -61 199 14
35 69 87 91 87 7 0 23 15 35 34 31 51 86 95 134 108 41 11 44 14 49 52 7 48
-18 98 -90 184 -265 314 -765 326 -1056 25 -63 -65 -104 -121 -142 -194 l-24
-47 72 -4 c88 -4 154 -34 213 -95 68 -69 89 -123 89 -223 0 -73 -4 -93 -28
-141 -35 -72 -98 -131 -171 -158 -55 -20 -70 -21 -592 -21 -580 0 -579 0 -622
55 -12 15 -27 45 -34 66 -20 70 21 157 88 185 19 8 40 26 48 42 26 50 109 112
150 112 22 0 23 5 56 160 53 253 130 435 257 612 287 400 803 631 1291 577z"/>
<path d="M1885 2874 c-432 -66 -790 -317 -979 -688 -24 -47 -53 -113 -64 -145
l-20 -58 46 13 c25 8 60 14 79 14 32 0 35 3 64 67 45 100 133 227 223 321 332
346 883 439 1319 221 167 -83 312 -209 421 -364 58 -82 57 -81 109 -89 23 -4
62 -18 89 -31 l48 -24 -36 72 c-63 125 -125 209 -234 318 -172 173 -362 283
-587 340 -103 27 -139 31 -283 34 -91 2 -178 1 -195 -1z"/>
<path d="M1870 2586 c-151 -27 -274 -78 -397 -165 -127 -90 -220 -191 -296
-326 -67 -118 -67 -114 2 -169 58 -45 60 -46 66 -24 14 47 79 165 120 218 145
188 352 306 579 329 217 22 416 -30 592 -154 58 -42 214 -198 214 -215 0 -5
27 10 60 32 l61 40 -27 37 c-103 137 -228 242 -373 312 -176 84 -416 118 -601
85z"/>
<path d="M2930 2051 c-65 -23 -120 -79 -146 -148 -14 -37 -16 -57 -8 -113 l9
-67 -72 1 c-68 1 -74 -1 -104 -30 -17 -17 -34 -46 -38 -65 -6 -29 -12 -34 -46
-41 -48 -10 -65 -24 -65 -54 0 -54 2 -54 540 -54 322 0 509 4 535 11 58 16
114 57 136 102 44 85 16 209 -59 260 -102 71 -180 63 -286 -28 -29 -25 -56
-45 -59 -45 -3 0 -8 19 -12 43 -24 144 -100 228 -221 242 -35 4 -65 0 -104
-14z"/>
<path d="M871 1889 c-18 -6 -55 -32 -81 -58 -59 -59 -75 -108 -66 -204 l6 -68
-52 6 c-41 4 -61 2 -88 -12 -40 -21 -80 -75 -80 -109 0 -21 -5 -24 -38 -24
-21 0 -43 -5 -50 -12 -15 -15 -15 -61 0 -76 9 -9 141 -12 530 -12 446 0 524 2
556 16 175 73 174 316 -2 389 -84 35 -158 17 -243 -59 l-52 -47 -11 43 c-25
102 -33 121 -68 160 -20 23 -55 49 -77 59 -44 20 -128 24 -184 8z"/>
</g>
</svg>
